<?xml version="1.0" encoding="utf-8"?>
<!-- Generator: Adobe Illustrator 26.5.0, SVG Export Plug-In . SVG Version: 6.00 Build 0)  -->
<svg version="1.1" xmlns="http://www.w3.org/2000/svg" xmlns:xlink="http://www.w3.org/1999/xlink" x="0px" y="0px"
	 viewBox="0 0 600 500" style="enable-background:new 0 0 600 500;" xml:space="preserve">
<style type="text/css">
	.st0{display:none;}
	.st1{display:inline;fill:#F8E3C8;}
	.st2{clip-path:url(#SVGID_00000173130925389820099940000015414287279685499569_);fill:#FEC47A;}
	.st3{display:none;clip-path:url(#SVGID_00000173130925389820099940000015414287279685499569_);fill:#FEC47A;}
	.st4{clip-path:url(#SVGID_00000173130925389820099940000015414287279685499569_);}
	.st5{clip-path:url(#SVGID_00000174559791287945809790000013111534237543149197_);}
	.st6{fill:#BA6352;}
	.st7{fill:#301522;}
	.st8{opacity:0.18;}
	.st9{fill:#270601;}
	.st10{fill:none;stroke:#301522;stroke-width:0.99;stroke-linecap:round;stroke-linejoin:round;stroke-miterlimit:10;}
	.st11{fill:#F8E3C8;}
	.st12{fill:#FFFFFF;}
	.st13{fill:#C15D31;}
	.st14{fill:#E0E0E0;}
	.st15{opacity:0.18;clip-path:url(#SVGID_00000174559791287945809790000013111534237543149197_);fill:#301522;}
	.st16{fill:#FF8801;}
	.st17{fill:#BBB366;}
	.st18{fill:#DA481C;}
	.st19{fill:#8A8034;}
	.st20{opacity:0.19;fill:#270601;}
	.st21{fill:none;stroke:#301522;stroke-width:0.734;stroke-linecap:round;stroke-linejoin:round;stroke-miterlimit:10;}
	.st22{opacity:0.28;fill:#270601;}
	.st23{opacity:0.11;fill:#270601;}
	.st24{clip-path:url(#SVGID_00000168113365068842418300000010712852289979076233_);}
	.st25{fill:#374F65;}
	.st26{opacity:0.15;fill:#270601;}
	.st27{fill:none;}
	.st28{opacity:0.24;fill:#270601;}
	.st29{opacity:0.51;fill:#270601;}
	.st30{opacity:0.18;fill:#270601;}
</style>
<g id="BACKGROUND" class="st0">
	<rect class="st1" width="600" height="500"/>
</g>
<g id="OBJECTS">
</g>
<g id="Layer_3">
	<g>
		<defs>
			<path id="SVGID_1_" d="M-34.41,271.68c0,0-13.45-122.91,59.44-161.11S88.23,13.14,72.14,7.09s51.73-10.73,95.57,25.77
				s112.62,55.09,185.89,0S546.38,69.84,554.66,141.3c8.28,71.46,103.23,49.05,103.23,49.05l15.7,314.44L-35.39,516.8L-34.41,271.68
				z"/>
		</defs>
		<clipPath id="SVGID_00000170975625230291204400000016868034961057774266_">
			<use xlink:href="#SVGID_1_"  style="overflow:visible;"/>
		</clipPath>
		
			<rect x="-12.73" y="-10.27" style="clip-path:url(#SVGID_00000170975625230291204400000016868034961057774266_);fill:#FEC47A;" width="622.77" height="548"/>
		<path style="display:none;clip-path:url(#SVGID_00000170975625230291204400000016868034961057774266_);fill:#FEC47A;" d="M600,0
			v76.19c-13.4,13.92-26.26,28.07-32.81,46.02c-11.24,30.8-1.52,67.25-16.89,96.21c-8.67,16.33-24.25,27.87-40.36,36.94
			c-16.12,9.08-33.34,16.3-48.42,27c-40.64,28.82-61.03,81.26-57.36,130.94l-66.29,4.83v2.86c-2.38-0.1-2.98,2.27-5.36,2.27
			L300,420.89l-32.51,2.37c-2.38,0-2.98-2.37-5.36-2.27v-2.86l-66.29-4.83c3.67-49.68-16.72-102.12-57.36-130.94
			c-15.08-10.7-32.3-17.92-48.42-27c-16.11-9.07-31.69-20.61-40.36-36.94c-15.37-28.96-5.65-65.41-16.89-96.21
			C26.26,104.26,13.4,90.11,0,76.19V0H600z"/>
		<g style="clip-path:url(#SVGID_00000170975625230291204400000016868034961057774266_);">
			<defs>
				<rect id="SVGID_00000140694862061913474040000010917599731519711149_" x="127.04" y="93.28" width="357.7" height="406.72"/>
			</defs>
			<clipPath id="SVGID_00000069374995863569445500000012375924249005845389_">
				<use xlink:href="#SVGID_00000140694862061913474040000010917599731519711149_"  style="overflow:visible;"/>
			</clipPath>
			<g style="clip-path:url(#SVGID_00000069374995863569445500000012375924249005845389_);">
				<g>
					<path class="st6" d="M331.69,236.69v46l-18.96,31.1h-38.42v-55.36l46.15-17.48c0,0,0.01-0.01,0-0.01L331.69,236.69z"/>
					<path class="st7" d="M321.26,253.34c-2.82,11.26-12.56,19.5-22.87,24.85c-6.42,3.34-16.22,7.53-24.08,6.01v-25.77l46.15-17.48
						C322.29,244.73,322.28,249.24,321.26,253.34z"/>
				</g>
				<g>
					<g>
						<g>
							<g>
								<path class="st6" d="M237.9,225.66c1.78,15.76,7.24,32.83,21.97,37.85c1.15,0.39,2.35,0.75,3.57,1.06
									c23.9,6.21,60.02-2.01,67.94-25.33c0.61-1.79,1.06-3.67,1.32-5.64c2.17-2.6,4.11-5.4,5.76-8.38c0.01,0,0.01,0,0.01,0
									c2.3-4.12,4.07-8.57,5.21-13.25c0.39-1.57,0.7-3.16,0.94-4.77c0.02-0.03,0.02-0.06,0.01-0.09
									c0.58-3.84,0.74-7.81,0.45-11.83c-2.15-29.55-27.85-51.77-57.41-49.61c-0.3,0.02-0.59,0.04-0.88,0.07
									c-7.64,0.68-14.76,2.93-21.08,6.42c-15.74,8.67-26.48,24.95-27.68,43.53c-0.03,0-0.06-0.01-0.06-0.01s-0.32,2.5-0.57,6.53
									l0,0.03C237.06,207.88,236.87,216.55,237.9,225.66z"/>
							</g>
							<g>
								<g>
									<g class="st8">
										<path class="st7" d="M266.34,228.51c0.92-0.16,1.9-0.38,2.56-1.04c1.08-1.07,0.81-3.15-0.5-3.9
											c-1.65-0.95-3.77,0.21-5.63-0.19c-0.8-0.17-1.5-0.62-2.24-0.95c-0.71-0.31-1.46-0.52-2.23-0.62
											c-0.48-0.06-0.98-0.07-1.43,0.1c-0.45,0.17-0.85,0.55-0.93,1.02c-0.08,0.5,0.19,0.97,0.45,1.4c0.9,1.51,2.09,3.67,3.8,4.4
											C261.87,229.46,264.58,228.81,266.34,228.51z"/>
									</g>
									<g>
										<g>
											<path class="st9" d="M241.26,193.94c0.21-1.14,0.97-2.13,1.93-2.82c0.96-0.69,2.14-1.09,3.36-1.12
												c1.21-0.03,2.39,0.29,3.38,0.87c0.98,0.59,1.81,1.42,2.24,2.46c0.11,0.27-0.02,0.59-0.29,0.7
												c-0.12,0.05-0.26,0.05-0.38,0.01l-0.03-0.01c-0.95-0.32-1.76-0.58-2.56-0.74c-0.79-0.17-1.55-0.24-2.28-0.22
												c-0.72,0.02-1.46,0.14-2.2,0.36c-0.75,0.22-1.49,0.55-2.33,1.04l-0.04,0.02c-0.25,0.15-0.58,0.06-0.73-0.19
												C241.26,194.2,241.24,194.06,241.26,193.94z"/>
											<path class="st9" d="M281.3,193.02c0.43-1.45,1.57-2.6,2.84-3.36c1.29-0.76,2.78-1.17,4.29-1.2
												c1.5-0.03,2.98,0.32,4.28,0.97c1.29,0.66,2.45,1.62,3.15,2.89c0.17,0.32,0.06,0.72-0.26,0.89
												c-0.15,0.08-0.33,0.1-0.48,0.06l-0.04-0.01c-1.25-0.33-2.34-0.6-3.43-0.77c-1.08-0.17-2.12-0.26-3.15-0.24
												c-1.01,0.02-2.04,0.14-3.07,0.38c-1.04,0.23-2.04,0.57-3.15,1.12l-0.05,0.03c-0.32,0.16-0.71,0.03-0.87-0.29
												C281.26,193.34,281.25,193.17,281.3,193.02z"/>
										</g>
										<path class="st10" d="M263.15,201.17c-0.32,5.79-3.05,11.13-5.75,16.27c-0.72,1.37-1.46,2.79-1.53,4.34
											c-0.13,2.75,1.84,5.11,3.69,7.15"/>
									</g>
									<g>
										<g>
											<g>
												<path class="st11" d="M278.79,207.37c1.83-4.97,7.43-8.16,12.68-7.46c5.25,0.7,8.23,4.05,9.4,9.22
													c0,0-0.47,7.68-11.24,8.11C280.77,217.59,278.79,207.37,278.79,207.37z"/>
											</g>
											<g>
												<path class="st9" d="M303.37,210.7c-0.31-1.62-0.76-2.97-1.36-4.38c-0.6-1.38-1.35-2.72-2.31-3.94
													c-0.95-1.21-2.12-2.31-3.5-3.1c-1.36-0.81-2.91-1.27-4.44-1.43c-1.53-0.13-3.03-0.04-4.51,0.32
													c-1.47,0.36-2.87,1.01-4.08,1.9c-2.42,1.8-4.04,4.35-4.88,7.15c-0.08,0.27,0.07,0.56,0.34,0.64
													c0.26,0.08,0.53-0.06,0.63-0.31l0.02-0.05c0.94-2.44,2.65-4.72,4.83-6.06c2.17-1.39,4.85-1.73,7.34-1.31
													c2.46,0.43,4.5,1.92,5.85,4c0.69,1.03,1.22,2.18,1.64,3.39c0.4,1.18,0.72,2.52,0.84,3.65l0.01,0.06
													c0.11,1,1,1.72,2,1.61c1-0.11,1.72-1,1.61-2C303.39,210.8,303.38,210.75,303.37,210.7z"/>
											</g>
											<g>
												<path class="st9" d="M284.27,208.58c0.81,4.13,4.76,6.84,8.82,6.04c4.06-0.8,6.7-4.79,5.89-8.92
													c-0.81-4.13-4.76-6.84-8.82-6.04C286.1,200.45,283.46,204.45,284.27,208.58z"/>
											</g>
										</g>
										<g>
											<g>
												<path class="st11" d="M255.76,208.45c0,0-0.11-8.02-6.97-8.77c-6.86-0.74-7.31,8.51-7.31,8.51s0.55,7.53,6.97,7.28
													C254.87,215.24,255.76,208.45,255.76,208.45z"/>
											</g>
											<g>
												<path class="st9" d="M256.67,208.15c-0.41-2.2-1.12-4.34-2.47-6.23c-0.69-0.91-1.52-1.8-2.62-2.35
													c-1.07-0.54-2.32-0.87-3.52-0.75c-2.38,0.03-4.78,1.42-6.09,3.42c-0.67,0.99-1.15,2.07-1.48,3.18
													c-0.17,0.55-0.3,1.12-0.4,1.68c-0.06,0.28-0.09,0.57-0.13,0.86l-0.04,0.44l-0.02,0.22c-0.02,0.07,0.02,0.16,0.27,0.24
													c0.34,0.12,0.69,0.14,1.02,0.08l0.35-0.07c0.25-0.05,0.3-0.1,0.29-0.16l0.01-0.18l0.03-0.37
													c0.03-0.25,0.05-0.5,0.09-0.75c0.07-0.5,0.18-1,0.31-1.48c0.26-0.97,0.65-1.89,1.17-2.71c0.51-0.83,1.21-1.5,2.01-1.97
													c0.39-0.28,0.85-0.4,1.29-0.59c0.23-0.06,0.47-0.11,0.71-0.16c0.24-0.06,0.47-0.11,0.71-0.11
													c0.96-0.14,1.89,0.09,2.76,0.46c0.87,0.38,1.6,1.09,2.24,1.86c1.28,1.56,2.11,3.59,2.61,5.6l0.01,0.03
													c0.06,0.24,0.3,0.39,0.54,0.33C256.57,208.62,256.71,208.39,256.67,208.15z"/>
											</g>
											<g>
												<path class="st9" d="M244.72,206.67c0,3.66,2.39,6.62,5.34,6.62c2.95,0,5.35-2.96,5.35-6.62c0-3.66-2.39-6.62-5.34-6.62
													C247.11,200.05,244.72,203.02,244.72,206.67z"/>
											</g>
										</g>
									</g>
									<g>
										<path class="st7" d="M264.99,228.44c0.12-0.01,0.25-0.06,0.33-0.15c0.05-0.06,0.08-0.1,0.16-0.25
											c0.76-1.46,1.22-1.78,1.44-1.84c0.72-0.21,1.56,0.03,2.05,0.6c0.16,0.19,0.45,0.21,0.63,0.04
											c0.19-0.16,0.21-0.44,0.04-0.63c-0.72-0.83-1.92-1.19-2.98-0.87c-0.83,0.25-1.53,1.42-1.98,2.28l-0.06,0.11
											c-0.17,0.18-0.14,0.43,0.04,0.6C264.75,228.41,264.87,228.45,264.99,228.44z"/>
									</g>
									<g>
										<path class="st7" d="M267.31,235.15c0.5-0.04,0.99-0.11,1.48-0.22c2.24-0.49,4.29-1.72,5.78-3.47
											c0.16-0.19,0.14-0.47-0.05-0.63c-0.19-0.16-0.47-0.14-0.63,0.05c-1.36,1.6-3.24,2.73-5.29,3.18
											c-2.05,0.45-4.23,0.21-6.14-0.67c-0.22-0.1-0.49-0.01-0.59,0.22c-0.1,0.22-0.01,0.49,0.22,0.59
											C263.72,234.96,265.53,235.28,267.31,235.15z"/>
									</g>
								</g>
							</g>
							<g>
								<g>
									<path class="st6" d="M337.56,206.51c5.87-0.84,12.26,1.76,15.38,6.81c3.23,5.22,2.55,12.32-0.96,17.35
										c-3.51,5.03-9.48,8.03-15.57,8.75c-2.63,0.31-5.48,0.18-7.68-1.3c-1.57-1.05-2.66-2.69-3.5-4.38
										C319.56,222.34,323.79,208.48,337.56,206.51z"/>
								</g>
								<g>
									<path class="st7" d="M331.32,232.56c0.16-0.01,0.3-0.09,0.39-0.23c0.93-1.45,2.87-4.13,5.38-5.79
										c2.24-1.48,4.86-1.96,7-1.29c0.46,0.15,0.75,0.33,0.84,0.55c0.11,0.26,0.41,0.39,0.66,0.28c0.26-0.11,0.39-0.4,0.28-0.66
										c-0.21-0.52-0.7-0.9-1.47-1.14c-2.43-0.77-5.38-0.24-7.87,1.41c-1.95,1.29-3.55,3.13-4.66,4.62
										c0.14-2.96,0.41-6.13,1.36-9.04c1.24-3.78,3.6-6.72,6.48-8.05c3.31-1.54,7.41-0.69,9.34,1.91
										c0.17,0.23,0.49,0.28,0.71,0.11c0.23-0.17,0.28-0.49,0.11-0.71c-2.2-2.98-6.85-3.97-10.59-2.23
										c-3.14,1.45-5.7,4.61-7.02,8.66c-1.19,3.64-1.35,7.6-1.49,11.09c-0.01,0.23,0.14,0.44,0.36,0.51
										C331.19,232.56,331.26,232.57,331.32,232.56z"/>
								</g>
							</g>
						</g>
						<g>
							<path class="st9" d="M346.48,207.95c-8.69-0.62-17.55,4-21.73,11.33c-0.31,0.54-0.59,1.11-0.88,1.67
								c-0.9,1.77-3.58,1.26-3.74-0.71c-0.21-2.69,0.39-5.75-0.86-8.17c-1.56-3.04-5.42-4.09-8.39-5.93
								c-4.08-2.53-6.7-6.91-7.57-11.49c-0.87-4.58-0.1-9.35,1.53-13.74c0.61-1.63,1.28-3.61,0.12-4.93
								c-0.88-1.01-2.43-1.12-3.78-1.37c-5.39-0.98-9.74-5.92-10.2-11.16l12.97-19.58c0.3-1.15,1.22-1.58,2.45-1.7
								c0.98-0.09,1.96,0.08,2.9,0.38c11.26,3.65,25.1,5.25,33.14,14.99c5.42,6.56,7.1,15.19,7.83,23.45
								c0.39,4.36,0.58,8.74,0.61,13.11c0.01,1.84-1.62,14.94-0.68,15.62C349.12,208.94,347.85,208.05,346.48,207.95z"/>
							<path class="st9" d="M308.55,142.52c-3.35,6.98-6.99,14.3-13.43,18.58c-3.63,2.41-7.89,3.66-12.07,4.91
								c-4.17,1.25-8.41,2.55-11.99,5.07c-3.56,2.5-6.4,6.44-6.47,10.8h-2.96c0.01-0.13,0.01-0.26,0.01-0.38
								c-0.04-6.04,1.09-11.94,3.07-17.64c-3.65,5.16-4.46,11.69-5.02,18.02l-7.13-0.01c0.08-6.59,1.19-12.84,3.4-19.26
								c-3.92,5.71-6.42,12.38-7.23,19.25l-25.98-0.02c0,0-5.55-20.98,20.47-37.92C269.25,127,308.55,142.52,308.55,142.52z"/>
						</g>
					</g>
					<path class="st9" d="M306.21,119.09c4.55-7.29,13.39-12.11,21.88-10.68c1.25,0.21,2.51,0.54,3.75,0.33
						c1.35-0.24,2.49-1.09,3.64-1.84c9.62-6.28,23.19-5.84,32.38,1.06c9.19,6.9,13.36,19.77,9.95,30.73
						c8.53,4.03,12.24,14.9,10.19,24.08c-2.05,9.19-8.7,16.74-16.21,22.43c-7.81,5.92-17.62,10.41-27.24,8.53
						c-5.22-1.02-9.92-3.84-14.08-7.15c-9.27-7.4-16.31-17.53-20-28.78c-1.21-3.69-1.99-7.74-4.09-11.07
						c-1.34-2.14-3.12-3.62-3.84-6.12C300.58,133.8,302.54,124.97,306.21,119.09z"/>
				</g>
				<path class="st12" d="M302.49,310.25l2.91-17.44c0,0,22.92-10.78,26.46-27.97l4.72,12.81c0,0,67.4,7.58,81.05,51.06
					c13.65,43.47,28.81,138.51,5.56,158.73c-23.25,20.22-139.52,19.21-139.52,19.21s-131.43,12.64-141.04-36.4
					c-9.6-49.03,22.75-154.18,52.57-166.31c29.83-12.13,63.7-14.66,64.71-18.2c1.01-3.54,1.26-15.08,14.41-16.18l0.25,23.25
					l12.3,1.01l0.17,18.03L302.49,310.25z"/>
				<path class="st13" d="M446.17,290.81c-12.13-6.13-28,0.85-35.45,15.59c-4.92,9.73-4.94,20.41-0.89,28.3
					c1.78,3.48,1.56,7.66-0.37,11.06l-39.18,68.71l12.81-0.67l34.88-61.39c2.16-3.8,6.22-6.02,10.59-6
					c10,0.04,20.45-6.66,26.08-17.8C462.08,313.86,458.29,296.94,446.17,290.81z"/>
				<path class="st10" d="M424.25,339.34c6.51,2.06,13.89-0.3,18.92-4.92c5.03-4.62,7.93-11.18,9.34-17.85
					c0.92-4.34,1.23-9.01-0.53-13.09"/>
				<path class="st13" d="M219.72,389.61l-25.69-40.46c-2.63-4.15-3.25-9.17-2.12-13.95c4.19-17.79-26.87-64.63-26.87-64.63
					s-34.37,18.53-34.71,19.54c0,0,19.55,39.43,27.3,49.54c3.4,4.44,7.53,6.38,11.08,7.16c4.89,1.07,9.16,4.02,11.64,8.37
					l24.71,43.29l21.74,1.01L219.72,389.61z M164.41,336.6l-24.54-45.57l5-2.38l24.05,45.81L164.41,336.6z M174.91,331.93
					l-24.54-45.56l5-2.38l24.04,45.81L174.91,331.93z M182.18,326.97l-24.54-45.57l5-2.37l24.05,45.8L182.18,326.97z"/>
				<polyline class="st10" points="227.72,389.53 227.72,319.43 302.53,310.33 305.4,292.81 				"/>
				<g>
					<g>
						<path class="st6" d="M281.3,424.24c0,0-11.12-0.67-12.81-5.39c0,0,1.01-3.37-7.41-9.44c-7.1-5.11-35.23-23.37-43.93-29
							c-1.3-0.84-3.03,0.06-3.05,1.61c-0.05,2.95,4.24,10,8.65,14.42l-24.35-10.28c0,0-7.41,9.1,2.7,16.85c0,0-7.08,5.73,1.01,12.13
							c0,0-4.04,6.74,2.7,11.8c0,0-4.04,8.43,4.04,14.83c8.09,6.4,68.75,26.62,68.75,26.62L281.3,424.24z"/>
						<path class="st10" d="M237.49,402.67l-39.09-16.51c0,0-7.92,8.26,2.7,16.85l13.14,7.25"/>
						<path class="st10" d="M200.63,403.01c0,0-4.42,5.81-0.88,9.86c3.54,4.04,10.78,7.5,10.78,7.5"/>
						<path class="st10" d="M202.11,415.14c0,0-4.38,6.15,2.7,11.8l8.09,5.64"/>
					</g>
					<path class="st10" d="M276.92,507.15c0,0,1.26-64.79,4.97-87.71l88.38-4.97l21.23-1.01"/>
				</g>
				<path class="st14" d="M274.56,292.81l-0.34-24.18c0,0-14.28-2.44-13.9,16.01C260.32,284.63,263.61,291.38,274.56,292.81z"/>
				<g>
					<path class="st7" d="M242.55,342.68c0,2.23-1.81,4.04-4.04,4.04c-2.23,0-4.04-1.81-4.04-4.04c0-2.23,1.81-4.04,4.04-4.04
						C240.74,338.64,242.55,340.45,242.55,342.68z"/>
					<path class="st7" d="M242.55,382.79c0,2.23-1.81,4.04-4.04,4.04c-2.23,0-4.04-1.81-4.04-4.04c0-2.23,1.81-4.04,4.04-4.04
						C240.74,378.74,242.55,380.56,242.55,382.79z"/>
				</g>
			</g>
			
				<circle style="opacity:0.18;clip-path:url(#SVGID_00000069374995863569445500000012375924249005845389_);fill:#301522;" cx="294.29" cy="228.1" r="10.16"/>
			<path style="opacity:0.18;clip-path:url(#SVGID_00000069374995863569445500000012375924249005845389_);fill:#301522;" d="
				M251.58,226.73c0,5.61-4.55,10.16-10.16,10.16c-0.55,0-1.09-0.04-1.61-0.13c-1.16-5.38-1.96-13.57-2.41-19.37
				c1.23-0.53,2.59-0.83,4.02-0.83C247.03,216.56,251.58,221.11,251.58,226.73z"/>
		</g>
		<g style="clip-path:url(#SVGID_00000170975625230291204400000016868034961057774266_);">
			<path class="st16" d="M552.75,327.6c-1.79,0.85-3.46,2.11-4.36,3.87c-0.9,1.76-0.88,4.08,0.4,5.58c1.33,1.56,3.7,1.91,5.65,1.29
				c3.14-0.99,7.88-5.14,7-8.87C560.52,325.57,555.51,326.29,552.75,327.6z"/>
			<path class="st17" d="M300.04,466.95c-1.79,0.85-3.46,2.11-4.36,3.87c-0.9,1.76-0.88,4.08,0.4,5.58c1.33,1.56,3.7,1.91,5.65,1.29
				c3.14-0.99,7.88-5.14,7-8.87C307.81,464.92,302.8,465.64,300.04,466.95z"/>
			<path class="st17" d="M422.7,119.86c-1.79,0.85-3.46,2.11-4.36,3.87c-0.9,1.76-0.88,4.08,0.4,5.58c1.33,1.56,3.7,1.91,5.65,1.29
				c3.14-0.99,7.88-5.14,7-8.87C430.47,117.83,425.46,118.56,422.7,119.86z"/>
			<path class="st18" d="M44.92,377.39c-1.79,0.85-3.46,2.11-4.36,3.87c-0.9,1.76-0.88,4.08,0.4,5.58c1.33,1.56,3.7,1.91,5.65,1.29
				c3.14-0.99,7.88-5.14,7-8.87C52.69,375.36,47.68,376.08,44.92,377.39z"/>
			<path class="st17" d="M177.09,236.23c-1.88-0.62-3.96-0.85-5.83-0.19c-1.87,0.66-3.44,2.35-3.55,4.33
				c-0.11,2.05,1.37,3.93,3.22,4.83c2.96,1.44,9.26,1.69,11.18-1.63C184.13,240.1,179.99,237.18,177.09,236.23z"/>
			<path class="st18" d="M200.07,149.42c-1.88-0.62-3.96-0.85-5.83-0.19c-1.87,0.66-3.44,2.35-3.55,4.33
				c-0.11,2.05,1.37,3.93,3.22,4.83c2.96,1.44,9.26,1.69,11.18-1.63C207.1,153.29,202.97,150.37,200.07,149.42z"/>
		</g>
		<g style="clip-path:url(#SVGID_00000170975625230291204400000016868034961057774266_);">
			<g>
				<g>
					<path class="st19" d="M525.5,279.09c-10.25,0.67-18.06,0.75-18.06,0.75l0.46-1.04c0,0,1.6-4.1,4.18-10.12
						c7.66-17.84,24-52.58,33.17-47.75c9.56,5.03-16.33,36.23-28.16,49.69c-1.96,2.23-3.54,3.98-4.49,5.04
						c0.98-1.04,2.6-2.76,4.69-4.94c13.31-13.84,45.73-45.92,53.17-38.47c7.29,7.31-31.15,31.08-48.87,41.42
						c-4.24,2.48-7.3,4.18-8.25,4.72c1-0.52,4.2-2.2,8.65-4.36c15.91-7.69,47.75-21.43,51.39-10.11
						C576.63,274.04,546.12,277.75,525.5,279.09z"/>
					<path class="st9" d="M525.5,279.09c-10.25,0.67-18.06,0.75-18.06,0.75l0.46-1.04c0,0,1.6-4.1,4.18-10.12
						c1.73,0.47,3.41,1.12,5.01,1.94c0.07,0.03,0.13,0.06,0.2,0.1c0.01,0.01,0.02,0.01,0.03,0.02c1.53,0.8,2.99,1.77,4.27,2.94
						c0.14,0.12,0.27,0.23,0.4,0.36c1.18,1.12,2.19,2.39,2.95,3.84C525.14,278.27,525.34,278.68,525.5,279.09z"/>
				</g>
				<g>
					<g>
						<path class="st16" d="M511.32,296.14l-10.84,5.93l-0.92,0.5l-6.8,3.72l-0.96,0.53l-5.36,2.93l-0.98,0.54l-30.34,16.6l39-50.85
							c4.96-6.47,14.52-7.23,20.3-1.48c0.1,0.1,0.21,0.2,0.31,0.31C520.89,281.3,519.13,291.87,511.32,296.14z"/>
					</g>
					<g>
						<path class="st7" d="M500.48,302.07l-0.92,0.5c-2.34-2.15-5.29-3.65-8.4-4.17c-0.13-0.01-0.23-0.08-0.31-0.17
							c-0.09-0.11-0.13-0.25-0.1-0.39c0.04-0.28,0.31-0.46,0.57-0.42C494.73,297.98,497.95,299.66,500.48,302.07z"/>
					</g>
					<g>
						<path class="st7" d="M492.76,306.29l-0.96,0.53c-2.1-1.54-4.54-2.62-7.09-3.07c-0.13-0.01-0.23-0.09-0.3-0.17
							c-0.1-0.12-0.15-0.26-0.11-0.4c0.05-0.27,0.31-0.46,0.58-0.41C487.74,303.28,490.46,304.52,492.76,306.29z"/>
					</g>
					<g>
						<path class="st7" d="M486.45,309.76l-0.98,0.54c-1.78-1.19-3.78-2.04-5.89-2.5c-0.12-0.03-0.21-0.08-0.28-0.17
							c-0.1-0.12-0.14-0.28-0.11-0.43c0.06-0.27,0.33-0.44,0.61-0.38C482.2,307.33,484.46,308.35,486.45,309.76z"/>
					</g>
				</g>
			</g>
			<g>
				<g>
					<path class="st19" d="M107.31,76.38c-10.26,0.44-18.07,0.35-18.07,0.35l0.49-1.03c0,0,1.69-4.06,4.41-10.02
						c8.06-17.66,25.17-52.03,34.23-47c9.44,5.24-17.14,35.86-29.27,49.05c-2.01,2.19-3.63,3.9-4.61,4.93c1-1.02,2.66-2.7,4.8-4.83
						c13.62-13.54,46.74-44.89,54.02-37.27c7.13,7.47-31.84,30.37-49.79,40.32c-4.29,2.39-7.39,4.02-8.35,4.54
						c1.01-0.5,4.25-2.11,8.74-4.17c16.08-7.33,48.22-20.36,51.6-8.96C158.54,72.48,127.95,75.5,107.31,76.38z"/>
					<path class="st9" d="M107.31,76.38c-10.26,0.44-18.07,0.35-18.07,0.35l0.49-1.03c0,0,1.69-4.06,4.41-10.02
						c1.72,0.5,3.38,1.19,4.96,2.05c0.07,0.04,0.13,0.07,0.19,0.1c0.01,0.01,0.02,0.01,0.03,0.02c1.51,0.84,2.95,1.84,4.2,3.03
						c0.13,0.12,0.26,0.24,0.39,0.37c1.15,1.14,2.14,2.44,2.87,3.9C106.97,75.55,107.16,75.96,107.31,76.38z"/>
				</g>
				<g>
					<g>
						<path class="st16" d="M92.76,93.11L81.79,98.8l-0.93,0.48l-6.88,3.57L73,103.35l-5.42,2.81l-0.99,0.51l-30.7,15.92
							l40.13-49.96c5.1-6.36,14.68-6.91,20.33-1.03c0.1,0.1,0.2,0.21,0.3,0.32C102.66,78.49,100.66,89.02,92.76,93.11z"/>
					</g>
					<g>
						<path class="st7" d="M81.79,98.8l-0.93,0.48c-2.29-2.2-5.2-3.77-8.3-4.36c-0.13-0.02-0.23-0.08-0.31-0.18
							c-0.09-0.11-0.13-0.26-0.1-0.4c0.05-0.28,0.32-0.45,0.58-0.41C76.12,94.58,79.31,96.33,81.79,98.8z"/>
					</g>
					<g>
						<path class="st7" d="M73.98,102.84L73,103.35c-2.06-1.58-4.48-2.72-7.02-3.23c-0.13-0.02-0.22-0.09-0.29-0.18
							c-0.09-0.12-0.14-0.26-0.1-0.4c0.05-0.27,0.32-0.45,0.59-0.4C69.02,99.72,71.71,101.02,73.98,102.84z"/>
					</g>
					<g>
						<path class="st7" d="M67.58,106.17l-0.99,0.51c-1.75-1.23-3.73-2.13-5.83-2.63c-0.12-0.04-0.21-0.09-0.28-0.18
							c-0.09-0.12-0.13-0.28-0.1-0.43c0.07-0.27,0.34-0.44,0.61-0.37C63.39,103.65,65.63,104.72,67.58,106.17z"/>
					</g>
				</g>
			</g>
			<g>
				<g>
					<g>
						<path class="st18" d="M519.2,192.24c-1.61-0.15-3.19-0.42-4.76-0.79c-9.82-2.3-18.47-8.17-25.82-15.08
							c-5.23-4.92-10.06-10.68-11.91-17.61c-2.61-9.79,1.73-21.05,10.28-26.48c3.89-2.47,8.49-3.63,13.09-3.53
							c5.52,0.1,11,2.02,15.16,5.66c1.61,1.41,3.01,3.02,4.45,4.6c0.7,0.77,1.41,1.52,2.14,2.24c1.66,1.6,3.5,2.83,5.44,3.86
							c7.32,3.88,16,4.92,20.78,12.81c5.22,8.62,2.36,20.68-5.17,27.39C536.56,190.96,527.69,193.08,519.2,192.24z"/>
						<path class="st19" d="M524.32,142.19c0,0-4.37-19.14-8.75-18.3c-4.38,0.84,6.21,18.9,6.21,18.9s-21.43,2.35-20.02,6.79
							s21.41-4.12,21.41-4.12s-14.02,15.99-9.95,17.99c4.07,2,12.03-16.74,12.03-16.74s4.32,10.07,10.26,9.49
							c5.94-0.58-8.23-11.08-8.23-11.08s16.94-4.13,15.83-8.01C541.98,133.23,524.32,142.19,524.32,142.19z"/>
					</g>
					<path class="st20" d="M519.2,192.24c-1.61-0.15-3.19-0.42-4.76-0.79c-9.82-2.3-18.47-8.17-25.82-15.08
						c-5.23-4.92-10.06-10.68-11.91-17.61c-2.61-9.79,1.73-21.05,10.28-26.48c3.89-2.47,8.49-3.63,13.09-3.53
						c-2.83,3.65-4.48,8.25-5.03,12.87c-0.76,6.31,0.34,12.71,1.98,18.85c1.55,5.85,3.61,11.63,6.77,16.79
						C507.59,183.44,512.95,188.6,519.2,192.24z"/>
				</g>
				<path class="st12" d="M540.15,170.79c0.24-2.03,0.15-4.13-0.16-6.18c-0.28-1.88,1.04-3.67,2.94-3.79
					c0.36-0.02,0.71-0.03,1.07-0.01c1.6,0.06,2.88,1.3,3.1,2.89c0.4,2.91,0.4,5.82-0.5,8.53c-0.41,1.25-1.56,2.11-2.87,2.21
					c-0.02,0-0.04,0-0.06,0.01C541.61,174.6,539.91,172.85,540.15,170.79z"/>
			</g>
			<g>
				<g>
					<g>
						<g>
							<path class="st12" d="M100.43,337.03c-0.42,0.99-1.18,1.81-2.03,2.46c-1.91,1.48-4.26,2.19-6.59,2.96
								c-0.21,0.08-0.42,0.15-0.63,0.21c-1.81,0.62-3.58,1.31-5.07,2.49c-0.37,0.28-0.73,0.63-0.88,1.06
								c-0.04,0.11-0.07,0.22-0.08,0.34c-0.01,0.13,0,0.26,0.03,0.39c0.14,0.63,0.75,1.14,1.3,1.52c2.17,1.49,4.55,2.7,6.5,4.47
								c1.95,1.77,3.46,4.3,3.15,6.91c-0.27,2.42-2.02,4.41-3.87,6c-1.62,1.38-3.44,2.61-5.52,3.05c-2.08,0.44-4.45-0.07-5.83-1.69
								c-1.33-1.56-1.48-3.81-1.21-5.84c0.28-2.03,0.92-4.02,0.97-6.07c0.02-0.88-0.09-1.82-0.64-2.51
								c-0.46-0.58-1.17-0.9-1.91-0.98c-0.21-0.02-0.42-0.03-0.64-0.01c-0.11,0.01-0.23,0.02-0.34,0.04c-1.05,0.17-2,0.73-2.86,1.35
								c-1,0.7-1.94,1.48-2.89,2.25c-0.2,0.17-0.41,0.33-0.62,0.49c-0.62,0.49-1.24,0.95-1.91,1.38c-1.91,1.23-4.18,2.11-6.43,1.76
								c-3.16-0.5-5.54-3.43-6.17-6.56c-0.63-3.13,0.22-6.39,1.53-9.31c2.85-6.37,7.94-11.63,14-15.09c3.79-2.16,8-3.66,12.35-3.98
								c4.35-0.32,8.84,0.57,12.54,2.87l0.01,0.03c0.76,0.61,1.84,2.12,2.12,2.51C100.33,331.64,101.47,334.63,100.43,337.03z"/>
						</g>
						<g>
							<path class="st7" d="M78.11,351.8c-0.21-0.02-0.42-0.03-0.64-0.01c0.35-1.82,0.56-3.67,0.45-5.53
								c-0.04-0.78-0.28-2.63-1.56-3.04c-0.53-0.17-1.18-0.05-1.73,0.32c-0.45,0.3-0.87,0.77-1.3,1.46
								c-1.9,3.11-2.05,6.99-1.97,10.42c-0.2,0.17-0.41,0.33-0.62,0.49c-0.12-3.63-0.04-7.83,2.05-11.24
								c0.47-0.77,0.95-1.3,1.48-1.66c0.72-0.48,1.57-0.63,2.27-0.4c1.17,0.37,1.9,1.69,2,3.6
								C78.66,348.11,78.45,349.97,78.11,351.8z"/>
						</g>
						<g>
							<path class="st7" d="M91.81,342.45c-0.21,0.08-0.42,0.15-0.63,0.21c-0.01,0-0.01-0.01-0.01-0.01
								c-0.38-0.52-0.78-1.06-1.21-1.53c-1.31-1.44-3.1-2.43-5.02-2.78c-0.42-0.08-0.98-0.15-1.49-0.01
								c-1.18,0.31-1.82,1.66-1.77,2.77c0.05,1.07,0.58,2.19,1.59,3.34c0.58,0.67,1.24,1.26,1.96,1.77
								c-0.04,0.11-0.07,0.22-0.08,0.34c-0.01,0.13,0,0.26,0.03,0.39c-0.88-0.59-1.68-1.28-2.38-2.08c-1.1-1.25-1.69-2.51-1.74-3.73
								c-0.06-1.35,0.7-3,2.24-3.41c0.64-0.17,1.28-0.09,1.77,0c2.05,0.37,3.97,1.43,5.38,2.97c0.46,0.5,0.87,1.05,1.26,1.58
								C91.72,342.34,91.77,342.4,91.81,342.45z"/>
						</g>
					</g>
					<g>
						<g>
							<path class="st12" d="M451.86,197.2c-0.97,0.48-2.07,0.6-3.15,0.55c-2.42-0.12-4.67-1.11-6.93-2.04
								c-0.21-0.08-0.42-0.16-0.62-0.25c-1.78-0.71-3.58-1.33-5.47-1.41c-0.46-0.02-0.97,0-1.36,0.23c-0.1,0.05-0.2,0.12-0.28,0.21
								c-0.1,0.09-0.17,0.2-0.23,0.31c-0.3,0.57-0.17,1.35,0,2c0.68,2.54,1.7,5.01,2.03,7.62c0.33,2.61-0.17,5.51-2.1,7.3
								c-1.78,1.66-4.4,2.04-6.84,2.04c-2.12-0.01-4.31-0.25-6.17-1.27c-1.86-1.02-3.34-2.95-3.32-5.07
								c0.01-2.05,1.35-3.86,2.88-5.23c1.53-1.37,3.31-2.45,4.68-3.98c0.59-0.66,1.11-1.44,1.14-2.32c0.02-0.74-0.3-1.44-0.82-1.99
								c-0.15-0.15-0.31-0.29-0.48-0.42c-0.09-0.07-0.19-0.13-0.28-0.19c-0.91-0.55-1.99-0.74-3.05-0.84
								c-1.22-0.12-2.44-0.13-3.66-0.17c-0.26,0-0.53-0.01-0.79-0.03c-0.79-0.03-1.57-0.08-2.35-0.19c-2.25-0.3-4.55-1.12-6.02-2.84
								c-2.08-2.43-1.98-6.21-0.42-9c1.56-2.79,4.33-4.71,7.21-6.08c6.31-2.99,13.59-3.68,20.44-2.36
								c4.29,0.82,8.46,2.42,11.97,5.01c3.51,2.58,6.34,6.18,7.66,10.33l-0.01,0.02c0.19,0.96,0.02,2.81-0.02,3.29
								C455.29,193.04,454.21,196.05,451.86,197.2z"/>
						</g>
						<g>
							<path class="st7" d="M425.3,193.9c-0.15-0.15-0.31-0.29-0.48-0.42c1.45-1.16,2.81-2.42,3.94-3.9
								c0.48-0.62,1.5-2.18,0.79-3.32c-0.29-0.47-0.86-0.8-1.52-0.88c-0.54-0.07-1.16,0.02-1.93,0.27c-3.47,1.13-6.1,3.97-8.27,6.64
								c-0.26,0-0.53-0.01-0.79-0.03c2.27-2.83,5.06-5.98,8.86-7.21c0.86-0.28,1.56-0.37,2.2-0.3c0.86,0.1,1.6,0.54,1.99,1.18
								c0.65,1.04,0.34,2.51-0.82,4.04C428.12,191.46,426.75,192.74,425.3,193.9z"/>
						</g>
						<g>
							<path class="st7" d="M441.79,195.71c-0.21-0.08-0.42-0.16-0.62-0.25c0,0,0-0.01,0-0.01c0.05-0.64,0.1-1.31,0.07-1.95
								c-0.06-1.95-0.78-3.86-2.01-5.38c-0.27-0.33-0.65-0.75-1.12-0.98c-1.09-0.53-2.46,0.07-3.15,0.96
								c-0.66,0.84-0.98,2.04-0.96,3.57c0.01,0.89,0.12,1.77,0.34,2.62c-0.1,0.05-0.2,0.12-0.28,0.21c-0.1,0.09-0.17,0.2-0.23,0.31
								c-0.29-1.02-0.44-2.07-0.45-3.12c-0.02-1.67,0.35-3,1.1-3.97c0.83-1.07,2.48-1.82,3.91-1.13c0.6,0.29,1.03,0.76,1.34,1.15
								c1.32,1.62,2.09,3.66,2.15,5.75c0.03,0.68-0.02,1.36-0.07,2.02C441.79,195.57,441.79,195.64,441.79,195.71z"/>
						</g>
					</g>
					<g>
						<g>
							<path class="st12" d="M567.8,373.5c-0.12,1.07-0.61,2.07-1.24,2.94c-1.41,1.97-3.46,3.33-5.46,4.73
								c-0.18,0.13-0.36,0.26-0.54,0.39c-1.56,1.11-3.05,2.29-4.14,3.84c-0.27,0.38-0.52,0.82-0.54,1.27
								c-0.01,0.12,0,0.23,0.02,0.35c0.03,0.13,0.07,0.25,0.14,0.36c0.31,0.56,1.04,0.88,1.68,1.08c2.5,0.81,5.13,1.28,7.51,2.41
								c2.37,1.14,4.54,3.12,5.01,5.72c0.43,2.4-0.66,4.8-1.98,6.85c-1.15,1.78-2.54,3.49-4.41,4.5c-1.87,1.01-4.29,1.21-6.07,0.05
								c-1.72-1.11-2.52-3.22-2.83-5.25c-0.32-2.03-0.27-4.11-0.82-6.09c-0.24-0.85-0.61-1.72-1.34-2.22
								c-0.61-0.42-1.38-0.52-2.12-0.39c-0.21,0.04-0.41,0.1-0.61,0.18c-0.11,0.04-0.21,0.08-0.32,0.13
								c-0.96,0.46-1.7,1.28-2.36,2.11c-0.76,0.96-1.43,1.98-2.13,2.99c-0.14,0.22-0.3,0.44-0.45,0.65
								c-0.45,0.64-0.92,1.27-1.43,1.87c-1.47,1.73-3.4,3.22-5.65,3.53c-3.17,0.43-6.29-1.69-7.79-4.52
								c-1.5-2.82-1.62-6.19-1.21-9.35c0.9-6.92,4.26-13.42,9.07-18.47c3.01-3.16,6.61-5.8,10.69-7.36
								c4.07-1.56,8.63-1.99,12.84-0.86l0.01,0.02c0.91,0.36,2.37,1.51,2.76,1.8C566.15,368.36,568.1,370.9,567.8,373.5z"/>
						</g>
						<g>
							<path class="st7" d="M550.65,394.06c-0.21,0.04-0.41,0.1-0.61,0.18c-0.19-1.84-0.52-3.68-1.15-5.43
								c-0.26-0.73-1.02-2.44-2.37-2.46c-0.56-0.01-1.14,0.29-1.57,0.81c-0.35,0.42-0.61,0.99-0.82,1.77
								c-0.93,3.52,0.04,7.28,1.11,10.54c-0.14,0.22-0.3,0.44-0.45,0.65c-1.16-3.44-2.29-7.49-1.27-11.36
								c0.23-0.87,0.54-1.51,0.94-2.01c0.55-0.67,1.32-1.06,2.06-1.03c1.23,0.02,2.3,1.07,2.95,2.87
								C550.12,390.36,550.46,392.21,550.65,394.06z"/>
						</g>
						<g>
							<path class="st7" d="M561.09,381.17c-0.18,0.13-0.36,0.26-0.54,0.39c-0.01,0-0.01,0-0.01,0c-0.51-0.39-1.05-0.79-1.6-1.12
								c-1.67-1-3.67-1.43-5.61-1.22c-0.43,0.05-0.98,0.14-1.43,0.42c-1.04,0.63-1.27,2.11-0.9,3.17c0.36,1.01,1.19,1.93,2.48,2.74
								c0.75,0.47,1.56,0.85,2.38,1.13c-0.01,0.12,0,0.23,0.02,0.35c0.03,0.13,0.07,0.25,0.14,0.36c-1.01-0.31-1.98-0.75-2.87-1.31
								c-1.41-0.88-2.34-1.92-2.74-3.07c-0.45-1.28-0.19-3.08,1.16-3.9c0.56-0.35,1.2-0.45,1.69-0.51c2.07-0.23,4.21,0.23,6,1.3
								c0.59,0.35,1.13,0.76,1.66,1.15C560.97,381.08,561.03,381.13,561.09,381.17z"/>
						</g>
					</g>
				</g>
				<g>
					<g>
						<g>
							<path class="st18" d="M93.16,266.57c-0.87,1.36-1.84,2.64-2.88,3.86c-6.55,7.67-15.74,12.65-25.25,16
								c-6.77,2.38-14.11,4.03-21.11,2.48c-9.9-2.18-17.9-11.2-18.8-21.3c-0.41-4.59,0.68-9.21,2.88-13.25
								c2.62-4.86,6.85-8.84,11.99-10.86c1.99-0.78,4.07-1.28,6.13-1.83c1-0.27,2-0.55,2.98-0.87c2.19-0.74,4.12-1.81,5.93-3.06
								c6.81-4.72,11.72-11.95,20.93-12.57c10.06-0.68,19.46,7.41,21.95,17.18C100,250.57,97.8,259.42,93.16,266.57z"/>
							<path class="st19" d="M51.06,239.03c0,0-19.01-4.91-20.27-0.63c-1.27,4.28,19.64,3.17,19.64,3.17s-7.76,20.11-3.17,20.91
								c4.59,0.79,6.18-20.91,6.18-20.91s7.76,19.8,11.4,17.11c3.64-2.69-9.34-18.37-9.34-18.37s10.93,0.79,13.15-4.75
								c2.22-5.54-13.62,2.22-13.62,2.22s4.12-16.95,0.16-17.74S51.06,239.03,51.06,239.03z"/>
						</g>
						<path class="st20" d="M93.16,266.57c-0.87,1.36-1.84,2.64-2.88,3.86c-6.55,7.67-15.74,12.65-25.25,16
							c-6.77,2.38-14.11,4.03-21.11,2.48c-9.9-2.18-17.9-11.2-18.8-21.3c-0.41-4.59,0.68-9.21,2.88-13.25
							c1.94,4.19,5.27,7.77,9.12,10.38c5.26,3.57,11.45,5.54,17.65,6.9c5.91,1.31,11.98,2.14,18.02,1.7
							C80.01,272.84,87.06,270.45,93.16,266.57z"/>
					</g>
					<path class="st12" d="M83.73,238.11c-1.7-1.15-3.6-2.03-5.56-2.7c-1.8-0.61-2.78-2.61-2.02-4.35c0.14-0.33,0.3-0.65,0.48-0.96
						c0.79-1.39,2.48-1.96,3.99-1.43c2.77,0.98,5.35,2.32,7.35,4.36c0.92,0.94,1.16,2.35,0.65,3.56c-0.01,0.02-0.02,0.04-0.03,0.06
						C87.79,238.56,85.45,239.27,83.73,238.11z"/>
				</g>
				<g>
					<path class="st19" d="M487.62,72.97c0.07,0.53,0.12,1.07,0.19,1.6c0.67,5.1,4.2,9.77,8.3,12.86
						c-4.39,1.22-8.85,2.56-13.14,4.09c-0.51,0.18-0.92-0.44-1.1-0.95c-1.78-5.25-2.01-10.52-1.69-16.04
						c-1.91,4.68-7.07,7.81-12.1,7.33c-1.56-0.15-3.14-0.64-4.28-1.71c-1.19-1.1-1.79-2.71-2.05-4.31
						c-0.44-2.61-0.45-5.62,0.66-8.02c-3.16-1.6-5.15-5.19-5-8.73c0.15-3.54,2.34-6.88,5.45-8.58s6.45-1.79,9.69-0.37
						c-1.34-2.71-1.51-5.88-1.04-8.87c0.55-3.5,1.98-6.93,4.46-9.46c2.48-2.53,6.08-4.06,9.6-3.64c1.47,0.18,2.92,0.69,4.08,1.61
						c2.46,1.95,3.38,4.1,4.11,7.14c0.62,2.6,1.03,5.25,1.22,7.91c0.7-3.59,4.17-6.56,7.59-7.85c2.51-0.95,5.36-0.59,7.93,0.19
						c3.59,1.09,5.88,4.95,5.85,8.7c-0.04,3.75-2.06,7.27-4.79,9.84c-2.73,2.57-6.11,4.32-9.51,5.89c4.44,0.36,7.74,5.25,6.93,9.63
						c-0.81,4.38-5.1,7.67-9.55,7.92C494.99,79.4,490.24,76.57,487.62,72.97z"/>
					<path class="st21" d="M470.29,74.68c-1.17-0.76-2.25-1.71-2.93-2.93c-0.68-1.22-0.89-2.75-0.31-4.02
						c0.84-1.84,3.14-2.65,5.14-2.37c-1.28-0.82-1.8-2.47-1.72-3.99c0.13-2.39,1.68-4.75,3.96-5.47c2.71-0.86,5.96,0.99,6.6,3.76
						c0.42-2.77,3.07-5.03,5.87-5.02c2.81,0.02,5.42,2.3,5.81,5.08"/>
					<path class="st21" d="M478.69,49.59c-0.35-1.53-0.28-3.2,0.45-4.59c0.73-1.39,2.2-2.43,3.77-2.41c1.57,0.03,3.1,1.29,3.19,2.86
						c0.39-0.99,1.07-1.89,1.98-2.44c0.92-0.55,2.08-0.71,3.08-0.33c1.47,0.56,2.32,2.19,2.43,3.77c0.11,1.57-0.37,3.12-0.85,4.63"
						/>
					<path class="st21" d="M485.64,69.07c0.44-1.27,1.12-2.53,2.21-3.31c1.1-0.78,2.69-0.99,3.79-0.21
						c1.01,0.71,1.38,2.04,1.47,3.27c0.5-2.41,3.31-4.05,5.66-3.3s3.69,3.71,2.71,5.96"/>
				</g>
			</g>
			<g>
				<g>
					<g>
						<g>
							<path class="st13" d="M488.13,394.81c-2.79,5.16-8.1,8.7-13.8,10.08c-3.32,0.8-6.77,0.94-10.11,1.65
								c-2.97,0.63-5.82,1.71-8.73,2.61c-5.55,1.72-11.59,2.76-17.14,1.02c-5.54-1.75-10.32-6.99-9.88-12.78
								c0.1-1.27,0.43-2.49,0.83-3.7c0.78-2.35,1.81-4.65,1.94-7.1c0.08-1.54-0.2-3.07-0.18-4.6c0.07-5.7,4.35-10.66,9.44-13.22
								c4.98-2.51,10.27-2.61,15.58-3.8c4.94-1.11,8.9-1.39,13.77,0.63c0.61,0.25,1.22,0.53,1.81,0.83
								c3.55,1.75,6.76,4.15,9.94,6.53c2.07,1.55,4.17,3.13,5.73,5.2C490.85,382.86,490.92,389.65,488.13,394.81z"/>
							<path class="st22" d="M488.13,394.81c-2.79,5.16-8.1,8.7-13.8,10.08c-3.32,0.8-6.77,0.94-10.11,1.65
								c-2.97,0.63-5.82,1.71-8.73,2.61c-5.55,1.72-11.59,2.76-17.14,1.02c-5.54-1.75-10.32-6.99-9.88-12.78
								c0.1-1.27,0.43-2.49,0.83-3.7c0.78-2.35,1.81-4.65,1.94-7.1c0.08-1.54-0.2-3.07-0.18-4.6c0.07-5.7,4.35-10.66,9.44-13.22
								c4.98-2.51,10.27-2.61,15.58-3.8c4.94-1.11,8.9-1.39,13.77,0.63c0.61,0.25,1.22,0.53,1.81,0.83
								c3.55,1.75,6.76,4.15,9.94,6.53c2.07,1.55,4.17,3.13,5.73,5.2C490.85,382.86,490.92,389.65,488.13,394.81z"/>
						</g>
						<g>
							<path class="st9" d="M442.71,395.45c0,0.6-0.92,1.09-2.05,1.09c-1.13,0-2.05-0.49-2.05-1.09c0-0.6,0.92-1.09,2.05-1.09
								C441.8,394.36,442.71,394.85,442.71,395.45z"/>
							<path class="st9" d="M444.85,387.72c0,0.6-0.92,1.09-2.05,1.09c-1.13,0-2.05-0.49-2.05-1.09c0-0.6,0.92-1.09,2.05-1.09
								C443.93,386.63,444.85,387.12,444.85,387.72z"/>
							<ellipse class="st9" cx="446.36" cy="392.77" rx="1.62" ry="1.09"/>
						</g>
						<g>
							<ellipse class="st9" cx="459.98" cy="377.07" rx="2.05" ry="1.09"/>
							<path class="st9" d="M464.16,369.34c0,0.6-0.92,1.09-2.05,1.09c-1.13,0-2.05-0.49-2.05-1.09c0-0.6,0.92-1.09,2.05-1.09
								C463.24,368.25,464.16,368.74,464.16,369.34z"/>
							<path class="st9" d="M467.3,374.39c0,0.6-0.73,1.09-1.62,1.09c-0.89,0-1.62-0.49-1.62-1.09c0-0.6,0.73-1.09,1.62-1.09
								C466.57,373.3,467.3,373.79,467.3,374.39z"/>
						</g>
						<g>
							<path class="st9" d="M472.68,398.31c0,0.6-0.92,1.09-2.05,1.09c-1.13,0-2.05-0.49-2.05-1.09c0-0.6,0.92-1.09,2.05-1.09
								C471.76,397.23,472.68,397.71,472.68,398.31z"/>
							<path class="st9" d="M474.81,390.58c0,0.6-0.92,1.09-2.05,1.09c-1.13,0-2.05-0.49-2.05-1.09c0-0.6,0.92-1.09,2.05-1.09
								C473.89,389.49,474.81,389.98,474.81,390.58z"/>
							<ellipse class="st9" cx="476.33" cy="395.63" rx="1.62" ry="1.09"/>
						</g>
					</g>
					<path class="st23" d="M488.13,394.81c-2.79,5.16-8.1,8.7-13.8,10.08c-3.32,0.8-6.77,0.94-10.11,1.65
						c-2.97,0.63-5.82,1.71-8.73,2.61c-5.55,1.72-11.59,2.76-17.14,1.02c-5.54-1.75-10.32-6.99-9.88-12.78
						c0.1-1.27,0.43-2.49,0.83-3.7c2.65,2.31,5.82,4.02,9.23,4.86c6.17,1.51,13.04,0.07,17.92-3.99c1.5-1.24,2.81-2.72,4.45-3.78
						c4.27-2.79,10.56-2.71,13.35-6.99c2.52-3.86,0.65-9-1.57-13.04c-0.72-1.3-1.49-2.77-1.07-4.18c0.01-0.05,0.03-0.09,0.05-0.14
						c3.55,1.75,6.76,4.15,9.94,6.53c2.07,1.55,4.17,3.13,5.73,5.2C490.85,382.86,490.92,389.65,488.13,394.81z"/>
				</g>
				<g>
					<g>
						<g>
							<path class="st13" d="M151.19,168.77c-2.79,5.16-8.1,8.7-13.8,10.08c-3.32,0.8-6.77,0.94-10.11,1.65
								c-2.97,0.63-5.82,1.71-8.73,2.61c-5.55,1.72-11.59,2.76-17.14,1.02c-5.54-1.75-10.32-6.99-9.88-12.78
								c0.1-1.27,0.43-2.49,0.83-3.7c0.78-2.35,1.81-4.65,1.94-7.1c0.08-1.54-0.2-3.07-0.18-4.6c0.07-5.7,4.35-10.66,9.44-13.22
								c4.98-2.51,10.27-2.61,15.58-3.8c4.94-1.11,8.9-1.39,13.77,0.63c0.61,0.25,1.22,0.53,1.81,0.83
								c3.55,1.75,6.76,4.15,9.94,6.53c2.07,1.55,4.17,3.13,5.73,5.2C153.91,156.82,153.98,163.61,151.19,168.77z"/>
							<path class="st22" d="M151.19,168.77c-2.79,5.16-8.1,8.7-13.8,10.08c-3.32,0.8-6.77,0.94-10.11,1.65
								c-2.97,0.63-5.82,1.71-8.73,2.61c-5.55,1.72-11.59,2.76-17.14,1.02c-5.54-1.75-10.32-6.99-9.88-12.78
								c0.1-1.27,0.43-2.49,0.83-3.7c0.78-2.35,1.81-4.65,1.94-7.1c0.08-1.54-0.2-3.07-0.18-4.6c0.07-5.7,4.35-10.66,9.44-13.22
								c4.98-2.51,10.27-2.61,15.58-3.8c4.94-1.11,8.9-1.39,13.77,0.63c0.61,0.25,1.22,0.53,1.81,0.83
								c3.55,1.75,6.76,4.15,9.94,6.53c2.07,1.55,4.17,3.13,5.73,5.2C153.91,156.82,153.98,163.61,151.19,168.77z"/>
						</g>
						<g>
							<path class="st9" d="M105.78,169.41c0,0.6-0.92,1.09-2.05,1.09c-1.13,0-2.05-0.49-2.05-1.09c0-0.6,0.92-1.09,2.05-1.09
								C104.86,168.32,105.78,168.81,105.78,169.41z"/>
							<ellipse class="st9" cx="105.86" cy="161.68" rx="2.05" ry="1.09"/>
							<path class="st9" d="M111.04,166.73c0,0.6-0.73,1.09-1.62,1.09s-1.62-0.49-1.62-1.09c0-0.6,0.73-1.09,1.62-1.09
								S111.04,166.13,111.04,166.73z"/>
						</g>
						<g>
							<path class="st9" d="M125.09,151.03c0,0.6-0.92,1.09-2.05,1.09c-1.13,0-2.05-0.49-2.05-1.09c0-0.6,0.92-1.09,2.05-1.09
								C124.17,149.95,125.09,150.43,125.09,151.03z"/>
							<path class="st9" d="M127.22,143.3c0,0.6-0.92,1.09-2.05,1.09c-1.13,0-2.05-0.49-2.05-1.09c0-0.6,0.92-1.09,2.05-1.09
								C126.3,142.21,127.22,142.7,127.22,143.3z"/>
							<path class="st9" d="M130.36,148.35c0,0.6-0.73,1.09-1.62,1.09c-0.89,0-1.62-0.49-1.62-1.09c0-0.6,0.73-1.09,1.62-1.09
								C129.63,147.26,130.36,147.75,130.36,148.35z"/>
						</g>
						<g>
							<path class="st9" d="M135.74,172.28c0,0.6-0.92,1.09-2.05,1.09c-1.13,0-2.05-0.49-2.05-1.09c0-0.6,0.92-1.09,2.05-1.09
								C134.82,171.19,135.74,171.68,135.74,172.28z"/>
							<ellipse class="st9" cx="135.82" cy="164.54" rx="2.05" ry="1.09"/>
							<path class="st9" d="M141.01,169.59c0,0.6-0.73,1.09-1.62,1.09c-0.89,0-1.62-0.49-1.62-1.09c0-0.6,0.73-1.09,1.62-1.09
								C140.28,168.51,141.01,168.99,141.01,169.59z"/>
						</g>
					</g>
					<path class="st23" d="M151.19,168.77c-2.79,5.16-8.1,8.7-13.8,10.08c-3.32,0.8-6.77,0.94-10.11,1.65
						c-2.97,0.63-5.82,1.71-8.73,2.61c-5.55,1.72-11.59,2.76-17.14,1.02c-5.54-1.75-10.32-6.99-9.88-12.78
						c0.1-1.27,0.43-2.49,0.83-3.7c2.65,2.31,5.82,4.02,9.23,4.86c6.17,1.51,13.04,0.07,17.92-3.99c1.5-1.24,2.81-2.72,4.45-3.78
						c4.27-2.79,10.56-2.71,13.35-6.99c2.52-3.86,0.65-9-1.57-13.04c-0.72-1.3-1.49-2.77-1.07-4.18c0.01-0.05,0.03-0.09,0.05-0.14
						c3.55,1.75,6.76,4.15,9.94,6.53c2.07,1.55,4.17,3.13,5.73,5.2C153.91,156.82,153.98,163.61,151.19,168.77z"/>
				</g>
			</g>
		</g>
		<g style="clip-path:url(#SVGID_00000170975625230291204400000016868034961057774266_);">
			<defs>
				<rect id="SVGID_00000109012347087929542320000009838174366035177406_" x="8.17" y="319.85" width="583.66" height="180"/>
			</defs>
			<clipPath id="SVGID_00000142869787098481597040000017686167612514887815_">
				<use xlink:href="#SVGID_00000109012347087929542320000009838174366035177406_"  style="overflow:visible;"/>
			</clipPath>
			<g style="clip-path:url(#SVGID_00000142869787098481597040000017686167612514887815_);">
				<g>
					<g>
						<g>
							<path class="st25" d="M225.58,400.97c-5.55,3.72-12,7.18-18.18,9.94l-1.22-2.73c6.97-3.11,13.32-6.65,18.48-10.18
								c7.73-5.28,12.78-10.52,13.18-14.2c0.15-1.4-0.41-2.51-1.76-3.5c-3.54-2.59-10.39-1.09-17.26,1.64
								c-6.05,2.43-12.1,5.81-15.9,8.18c-0.49,0.32-0.94,0.6-1.35,0.87l-1.64-2.51c0.51-0.33,1.73-1.14,3.47-2.17
								c3.4-2.03,8.74-4.99,14.38-7.23c7.45-2.95,15.41-4.63,20.09-1.21c2.19,1.61,3.22,3.77,2.96,6.24
								C240.27,389.27,233.92,395.4,225.58,400.97z"/>
						</g>
						<g>
							<path class="st25" d="M54.34,457.08c-8.59,1.93-18.26,3.14-26.37,2.97c-2.86-0.06-5.53-0.29-7.89-0.72
								c-3.8-0.7-6.8-1.92-8.53-3.8c-1.69-1.83-2.15-4.17-1.35-6.77c1.72-5.61,9.3-9.04,17.15-11.11
								c8.74-2.31,17.83-2.93,19.61-3.03l0.17,2.99c-4.4,0.26-12.52,1.22-19.75,3.2c-6.94,1.9-13.05,4.74-14.31,8.84
								c-0.49,1.59-0.27,2.81,0.69,3.85c2.04,2.22,7.19,3.42,14.08,3.58c7.22,0.17,16.36-0.79,25.86-2.92L54.34,457.08z"/>
						</g>
					</g>
					<path class="st9" d="M218.82,381.95c-6.05,2.43-12.1,5.81-15.9,8.18c0.15-1.27,0.31-2.54,0.48-3.81
						c3.4-2.03,8.74-4.99,14.38-7.23C218.11,380.05,218.47,381,218.82,381.95z"/>
					<path class="st9" d="M225.58,400.97c-5.55,3.72-12,7.18-18.18,9.94l-1.22-2.73c6.97-3.11,13.32-6.65,18.48-10.18
						C224.99,398.98,225.29,399.97,225.58,400.97z"/>
					<path class="st9" d="M47.14,437.61c-4.4,0.26-12.52,1.22-19.75,3.2c-0.02-1.05-0.03-2.11-0.03-3.16
						c8.74-2.31,17.83-2.93,19.61-3.03L47.14,437.61z"/>
					<path class="st9" d="M54.34,457.08c-8.59,1.93-18.26,3.14-26.37,2.97c-0.06-0.99-0.1-1.98-0.14-2.98
						c7.22,0.17,16.36-0.79,25.86-2.92L54.34,457.08z"/>
					<g>
						<path class="st25" d="M227.15,500.95l-94.6,26.51L83.4,541.23c-10.23,2.87-20.81-3.21-23.51-13.49l-26.5-101.31l113.44-36.09
							l60.27-19.17L240.16,477C243.35,487.22,237.46,498.06,227.15,500.95z"/>
					</g>
					<path class="st26" d="M227.15,500.95l-94.6,26.51c4.75-26.99,9.16-54.05,11.56-81.34c1.62-18.55,2.31-37.15,2.72-55.77
						l60.27-19.17L240.16,477C243.35,487.22,237.46,498.06,227.15,500.95z"/>
					<g>
						<path class="st9" d="M34.81,428.09l169.77-53.57c0,0-23.68,23.34-72.94,37.12C82.38,425.42,34.81,428.09,34.81,428.09z"/>
					</g>
					<path class="st27" d="M280.14,501.95c-0.74-0.37-1.48-0.73-2.22-1.1"/>
				</g>
				<g>
					<g>
						<path class="st9" d="M384.23,426.01c0,0,0-0.01-0.01-0.01c-6.49-4.39-30.33-20.52-49.06-32.72
							c-21.89-14.25-55.87-32.34-56.37-15.49c-0.48,15.74,77.14,54.27,87.35,59.27c0.72,0.35,1.11,0.54,1.11,0.54l1.32-0.74
							l17.35-9.71C385.92,427.15,385.33,426.74,384.23,426.01z M302.46,387.85c-0.02,0.03-0.05,0.05-0.07,0.08
							c-2.03,2.25-5.37,1.06-7.47-0.34c-1-0.67-1.94-1.41-2.82-2.24c-1.01-0.95-1.94-2.03-2.38-3.35c-0.43-1.32-0.27-2.91,0.7-3.89
							c2.17-2.2,6.62-0.76,8.84,0.58c1.84,1.11,3.33,2.87,3.88,4.95C303.52,385.08,303.4,386.73,302.46,387.85z"/>
						<g>
							<g>
								<path class="st25" d="M583.17,470.23c-0.05,1.6-1.23,3.54-1.84,4.96c-9.73,22.95-25.41,40.69-44.85,52.24
									c-19.84,11.8-43.55,17.16-68.76,15.05c-39.73-3.34-85.09-27.07-97.35-67.47c-2.8-9.23-4.05-18.9-4.09-28.54
									c0-0.05,0-0.09,0-0.14c0-0.92-0.31-5.84-0.14-9.26c0.07-1.27,0.2-2.34,0.43-2.91c0.09-0.19,0.19-0.34,0.29-0.41
									c0.03-0.02,5.85-3.83,17.37-7.73c10.77-3.66,26.51-7.4,47.17-8.22c7.95-0.31,16.62-0.19,26,0.54
									c0.69,0.05,1.39,0.12,2.1,0.18c7.07,0.61,14.56,1.56,22.45,2.93c2.36,0.41,4.75,0.86,7.17,1.34
									c1.98,0.4,3.92,0.81,5.81,1.22c2.4,0.54,4.75,1.09,7.04,1.68c12.05,3.04,22.58,6.64,31.7,10.45
									c5.25,2.19,10.02,4.45,14.35,6.72C572.93,455.9,583.2,469.15,583.17,470.23z"/>
								<path class="st28" d="M583.17,470.24c-4.73,2.7-9.39,5.1-14.02,7.23c-51.84,23.87-97.22,12.96-141.89-1.11
									c-25.88-8.15-41.3-19.68-50.08-28.68c-7.74-7.94-10.31-13.92-10.31-13.92c0.07-0.06,41.46-27.13,122.26-10.97
									C557.58,436.47,583.22,468.52,583.17,470.24z"/>
								<path class="st29" d="M569.15,477.46c-51.84,23.87-97.22,12.96-141.89-1.11c-25.88-8.15-41.3-19.68-50.08-28.68
									c9.55-4.69,32.94-10.74,87.57-5.06C533.72,449.78,561.86,470.85,569.15,477.46z"/>
							</g>
						</g>
					</g>
					<path class="st30" d="M536.48,527.44c-19.84,11.8-43.55,17.16-68.76,15.05c-39.73-3.34-85.09-27.07-97.35-67.47
						c-2.8-9.23-4.05-18.9-4.09-28.54c8.07,17.75,22.16,32.62,38.38,43.64c18.94,12.86,40.72,20.92,62.67,27.43
						c22.11,6.57,45.08,11.72,68.08,10C535.77,527.5,536.13,527.48,536.48,527.44z"/>
					<path class="st11" d="M549.89,500.98c2.24-2.35,3.95-5.21,5.46-8.16c1.06-2.06,3.59-2.94,5.66-1.88
						c0.47,0.24,0.92,0.49,1.37,0.76c2.09,1.25,2.65,4.04,1.25,6.04c-1.86,2.65-4.67,6.33-7.71,9.22c-1.83,1.74-4.77,1.52-6.3-0.49
						l0,0C548.35,504.82,548.46,502.49,549.89,500.98z"/>
				</g>
			</g>
		</g>
	</g>
</g>
</svg>
